HIERARCHY
ROOT Hips
{
  OFFSET -365.579 96.3027 377.394
  CHANNELS 6 Xposition Yposition Zposition Zrotation Xrotation Yrotation
  JOINT ToSpine
  {
    OFFSET -2.69724 7.43032 -0.144315
    CHANNELS 3 Zrotation Xrotation Yrotation
    JOINT Spine
    {
      OFFSET -0.0310711 10.7595 1.96963
      CHANNELS 3 Zrotation Xrotation Yrotation
      JOINT Spine1
      {
        OFFSET 19.9056 3.91189 0.764692
        CHANNELS 3 Zrotation Xrotation Yrotation
        JOINT Neck
        {
          OFFSET 25.9749 7.03908 -0.130764
          CHANNELS 3 Zrotation Xrotation Yrotation
          JOINT Head
          {
            OFFSET 9.52751 0.295786 -0.907742
            CHANNELS 3 Zrotation Xrotation Yrotation
            End Site
            {
              OFFSET 16.4037 0.713936 2.7358
            }
          }
        }
        JOINT LeftShoulder
        {
          OFFSET 17.7449 4.33886 11.7777
          CHANNELS 3 Zrotation Xrotation Yrotation
          JOINT LeftArm
          {
            OFFSET 0.911315 1.27913 9.80584
            CHANNELS 3 Zrotation Xrotation Yrotation
            JOINT LeftForeArm
            {
              OFFSET 28.6126 1.18197 -3.53199
              CHANNELS 3 Zrotation Xrotation Yrotation
              JOINT LeftHand
              {
                OFFSET 27.5088 0.0218783 0.327423
                CHANNELS 3 Zrotation Xrotation Yrotation
                End Site
                {
                  OFFSET 18.6038 -0.000155887 0.382096
                }
              }
            }
          }
        }
        JOINT RightShoulder
        {
          OFFSET 17.1009 2.89543 -12.2328
          CHANNELS 3 Zrotation Xrotation Yrotation
          JOINT RightArm
          {
            OFFSET 1.4228 0.178766 -10.211
            CHANNELS 3 Zrotation Xrotation Yrotation
            JOINT RightForeArm
            {
              OFFSET 28.733 1.87905 2.64907
              CHANNELS 3 Zrotation Xrotation Yrotation
              JOINT RightHand
              {
                OFFSET 27.4588 0.290562 -0.101845
                CHANNELS 3 Zrotation Xrotation Yrotation
                End Site
                {
                  OFFSET 17.8396 -0.255518 -0.000602873
                }
              }
            }
          }
        }
      }
    }
  }
  JOINT LeftUpLeg
  {
    OFFSET -5.61296 -2.22332 -10.2353
    CHANNELS 3 Zrotation Xrotation Yrotation
    JOINT LeftLeg
    {
      OFFSET 2.56703 -44.7417 -7.93097
      CHANNELS 3 Zrotation Xrotation Yrotation
      JOINT LeftFoot
      {
        OFFSET 3.16933 -46.5642 -3.96578
        CHANNELS 3 Zrotation Xrotation Yrotation
        JOINT LeftToeBase
        {
          OFFSET 0.346054 -6.02161 12.8035
          CHANNELS 3 Zrotation Xrotation Yrotation
          End Site
          {
            OFFSET 0.134235 -1.35082 5.13018
          }
        }
      }
    }
  }
  JOINT RightUpLeg
  {
    OFFSET -5.7928 -1.72406 10.6446
    CHANNELS 3 Zrotation Xrotation Yrotation
    JOINT RightLeg
    {
      OFFSET -2.57161 -44.7178 -7.85259
      CHANNELS 3 Zrotation Xrotation Yrotation
      JOINT RightFoot
      {
        OFFSET -3.10148 -46.5936 -4.03391
        CHANNELS 3 Zrotation Xrotation Yrotation
        JOINT RightToeBase
        {
          OFFSET -0.0828122 -6.13587 12.8035
          CHANNELS 3 Zrotation Xrotation Yrotation
          End Site
          {
            OFFSET -0.131328 -1.35082 5.13018
          }
        }
      }
    }
  }
}
MOTION
Frames:	10
Frame Time:	0.0333333
-365.579 96.3027 377.394 69.7534 36.8708 16.7229 -70.1915 0 88.8779 133.852 73.1144 -39.2435 -10.7892 26.8198 6.01773 -150.519 24.7709 165.778 -143.454 59.2521 147 2.64232 -0.472253 -28.9052 -105.174 51.6786 -81.1969 -9.33838 2.07531 0.0471333 -4.42072 -1.80783 49.612 0.965583 -3.40495 41.6892 -66.3405 -36.4561 104.674 -1.1621 6.78311 30.4642 12.0742 -0.720605 -7.54452 -32.4788 3.28702 92.0525 -1.25704 30.4133 -2.9771 0.119608 15.3878 0.94957 -12.7659 -30.153 -0.436019 -61.1576 6.16852 86.8641 -0.578171 47.1454 17.4092 9.8361 14.8454 -3.34523 -2.97148 -16.7309 9.95942 
-363.331 96.8917 375.167 70.4045 38.1372 16.2326 -70.1915 0 88.8779 135.656 71.1162 -42.5468 -11.4974 26.2108 4.96595 -151.652 24.2605 166.404 -146.438 59.4645 148.746 2.67631 -0.0609764 -28.5016 -103.775 51.6152 -82.8938 -9.49581 0.730031 -1.80743 -3.31719 -1.36051 50.9857 0.819442 -2.79887 42.7419 -66.0794 -37.5635 102.014 1.11671 3.08094 29.2287 11.69 -0.121135 -1.61588 -35.9338 1.91949 91.2362 -1.07169 28.9066 -1.52894 3.45223 16.7393 0.165444 -12.0201 -29.0672 0.795298 -61.258 6.7805 91.0467 3.83356 51.0726 8.26943 7.03974 9.71934 -1.97159 -2.88483 -15.9325 11.2478 
-361.187 97.2315 372.994 71.1299 39.7877 14.3157 -70.1915 0 88.8779 137.698 69.7551 -49.1355 -12.7197 25.783 6.23448 -152.381 24.387 165.185 -146.272 59.5232 148.192 2.48127 -1.03301 -28.0968 -93.8346 53.182 -90.3419 -9.33452 -6.42794 -8.56565 -1.46284 -0.555355 54.7133 0.928171 -3.16078 42.9855 -65.8285 -38.7108 100.511 2.85144 0.0527578 27.1816 11.3744 0.493952 4.88155 -39.795 -0.685787 91.5403 -0.525741 26.8188 -0.813554 6.38355 15.9514 -0.618333 -10.9332 -26.3787 0.356312 -58.7964 5.58269 91.2259 5.3369 61.5138 3.1756 2.94388 -0.707281 -0.126829 -2.7717 -14.4238 13.5027 
-359.052 97.1765 370.602 73.0695 41.6565 10.6646 -70.1915 0 88.8779 138.233 68.8635 -54.8874 -12.2015 25.2157 7.37987 -152.404 24.3875 165.804 -147.934 60.2373 151.21 2.36924 -2.07698 -28.9196 -85.8681 52.4938 -98.3099 -8.79922 -9.79325 -11.6471 -1.37977 -0.504986 53.9277 1.01933 -3.46534 43.1266 -65.0671 -39.5632 100.309 3.99542 -2.34817 24.585 12.7398 1.01638 9.19174 -43.4812 -4.3183 91.7412 0.0121365 27.1114 0.23441 7.79296 14.0098 -0.987972 -10.4382 -25.5274 1.10259 -57.681 3.58444 92.3977 8.87605 71.643 -2.87715 1.31192 -9.75447 0.816307 -2.78272 -14.6888 12.2872 
-356.872 97.4461 368.263 74.0353 43.9342 8.67579 -70.1915 0 88.8779 134.834 68.17 -54.8328 -11.6678 23.7068 7.73083 -148.498 23.5902 167.457 -150.959 60.7871 158.193 2.30406 -2.87924 -30.0393 -89.0529 50.3471 -98.1426 -8.06887 -4.99619 -10.5362 -1.2401 -0.390352 49.1456 0.837536 -2.74204 44.5343 -66.3543 -39.392 98.2641 2.8945 -5.14373 21.0836 13.6151 1.51719 12.904 -46.7385 -7.05683 92.0445 0.646056 26.7139 -0.643885 8.40136 12.1006 -1.13247 -10.0404 -24.6685 1.31446 -56.2674 2.29011 93.0042 15.558 77.4205 -5.76375 5.63438 -6.64005 0.274473 -3.71 -20.2418 1.59213 
-354.161 98.5281 365.138 74.0136 45.8298 9.73396 -70.1915 0 88.8779 131.57 68.9085 -51.8627 -11.4413 22.8676 9.0703 -140.426 23.3146 166.634 -149.168 61.29 163.162 1.86418 -5.51168 -30.9975 -96.9246 49.1196 -95.1297 -7.7649 4.20301 -7.02159 -4.42007 -1.56819 43.8928 0.821683 -2.63186 45.49 -74.6782 -39.4481 91.2714 1.33791 -11.408 17.9389 13.9054 1.69278 14.1012 -50.5388 -7.49864 91.552 1.40708 24.9583 -2.64526 8.28545 11.4105 -1.10679 -10.3873 -25.4618 1.24024 -51.4751 2.74107 91.318 23.7893 81.2106 -14.6831 6.1212 -4.32575 -0.0479722 -3.80684 -20.7786 1.58921 
-351.744 99.1125 362.433 74.3812 47.9415 9.7491 -70.1915 0 88.8779 128.432 67.8225 -49.8942 -10.6677 21.0752 9.39474 -140.505 22.8203 168.87 -152.611 61.2081 166.913 1.98987 -4.42939 -29.4002 -100.902 50.7522 -97.2455 -8.08864 14.9091 -1.54977 -1.41498 -0.273009 30.9044 0.667677 -2.13228 45.5905 -78.2694 -39.9951 88.5554 0.162274 -14.9115 16.0586 14.0487 1.4337 11.7742 -54.0365 -8.31907 91.5003 1.97991 23.7529 -4.65299 8.51836 10.411 -1.1558 -10.6318 -26.0855 1.35535 -47.8001 1.97354 89.2717 23.3452 81.4213 -16.4155 2.97658 -3.76983 0.166428 -3.62206 -19.6965 1.35282 
-349.463 99.323 359.827 75.5398 49.9059 8.54489 -70.1915 0 88.8779 126.497 65.1739 -48.8375 -10.0674 18.8844 7.89904 -142.973 21.6289 172.851 -159.094 60.4261 172.28 2.40557 -0.966282 -27.0304 -98.8428 52.6975 -102.404 -8.61164 13.1177 0.219397 -2.18321 -0.557491 35.7384 0.375687 -1.18057 46.6875 -80.0102 -39.5443 87.4536 -1.56199 -17.5941 13.8277 13.6584 1.04204 8.73935 -57.3216 -9.40039 91.932 2.54805 23.5607 -6.54216 8.54498 9.48116 -1.15962 -11.0996 -27.1133 1.18539 -45.4173 0.583081 87.7708 16.4035 79.2498 -12.4553 -0.815074 -3.44497 0.485958 -3.134 -17.0576 2.08676 
-347.157 99.5658 357.173 76.973 51.6697 7.47785 -70.1915 0 88.8779 125.539 62.3954 -47.8185 -9.63826 16.8756 6.08258 -145.43 20.257 176.527 -165.125 59.36 177.535 2.70981 2.18826 -25.3716 -95.3991 53.2839 -107.607 -8.82281 20.288 -0.215885 0.0880273 0.0946465 24.7616 0.0346665 -0.143652 47.9021 -82.0658 -38.8574 86.2698 -3.47687 -19.5936 11.2929 13.3793 0.541256 4.47572 -60.9375 -9.77963 92.5222 3.03565 23.0023 -8.93979 8.60779 8.95814 -1.17099 -11.82 -28.7096 1.01278 -43.6976 -0.833729 85.2725 9.76382 74.038 -6.44993 -10.0821 3.951 1.45832 -4.06367 -20.4818 -4.6607 
-344.698 99.868 354.414 78.7221 53.4549 6.29729 -70.1915 0 88.8779 126.361 61.1364 -50.0948 -10.1244 15.7649 7.52296 -144.355 20.2187 176.303 -164.355 59.2654 177.544 2.66645 1.44645 -25.9549 -91.7571 51.9783 -111.733 -9.59181 27.0024 -0.233607 8.56882 0.835461 12.3074 0.0801572 -0.284083 48.2334 -83.7833 -38.4418 83.833 -4.55862 -18.4178 10.1633 12.9975 -0.0175712 -0.526838 -65.2293 -9.84923 92.8859 3.4522 21.6658 -11.1887 8.24155 9.26319 -1.09873 -12.8542 -31.0151 0.885919 -42.8056 -2.04484 83.5908 6.02463 68.0209 -4.08528 -7.54153 1.69539 1.07599 -2.7013 -14.7265 -4.53134 
